<svg xmlns="http://www.w3.org/2000/svg" xmlns:xlink="http://www.w3.org/1999/xlink" id="Layer_1" width="100%" x="0" y="0" enable-background="new 0 0 896 592" version="1.1" viewBox="0 0 896 592" xml:space="preserve"><path fill="red" stroke="none" d="M745.918457,278.295929 C746.957764,306.983154 745.543274,334.995636 739.506775,362.688995 C729.549927,408.366608 709.210693,448.892700 679.134216,484.542511 C649.625366,519.519592 614.670044,547.599243 572.884827,566.698181 C546.656860,578.686401 519.110840,585.967834 490.462616,589.524597 C469.038635,592.184509 447.593964,592.726440 426.164307,591.088135 C385.679932,587.993103 347.089294,577.701477 311.492035,557.790527 C252.866470,524.999023 208.644592,478.538879 180.549881,417.306122 C167.817947,389.556702 160.644974,360.249878 157.549011,329.829163 C152.999420,285.125397 157.145920,241.398544 171.565475,198.842361 C189.265778,146.603760 221.328674,104.289429 263.029022,68.876266 C297.279266,39.789932 336.272064,19.883038 380.011536,9.580564 C396.847748,5.614932 413.926270,3.215498 431.315063,2.400180 C445.827576,1.719728 460.251465,1.829942 474.708832,2.671389 C511.373871,4.805366 546.336426,13.778646 579.260315,29.969873 C634.947021,57.355385 678.023865,98.512184 709.254883,151.923538 C727.790039,183.622299 738.864746,218.043320 743.385925,254.515533 C744.347168,262.269440 745.059631,270.054138 745.918457,278.295929 M251.170746,492.330872 C279.316986,521.205444 311.491364,544.088257 349.266968,558.799561 C392.730011,575.725769 437.782501,579.816101 483.807526,575.480774 C516.609985,572.390991 547.862000,563.462952 577.308105,548.559448 C609.057983,532.489929 636.366211,510.688354 660.168762,484.313354 C704.780701,434.880066 728.580933,377.063599 730.854858,310.421143 C732.051697,275.343933 728.632385,240.901352 717.400452,207.476578 C703.775574,166.930252 681.128296,132.046997 651.188721,101.662437 C618.059265,68.040543 579.611511,43.116310 534.155396,29.657969 C499.781616,19.480820 464.683105,16.516411 428.931335,19.097967 C392.574310,21.723227 358.018250,30.569750 325.591644,47.219944 C288.576996,66.225998 257.468872,92.517075 231.582230,124.996422 C204.984634,158.367783 186.950714,195.819077 178.223969,237.703232 C173.263992,261.508759 172.445114,285.546204 173.078522,309.744843 C173.758148,335.708740 177.582321,361.146881 185.690445,385.813019 C198.978073,426.236084 221.061096,461.359863 251.170746,492.330872 z" opacity="1"/><path fill="red" stroke="none" d="M599.874390,114.106514 C632.369812,141.176575 657.275757,173.386398 671.901367,212.979797 C686.968445,253.768112 689.869080,295.739258 682.770691,338.431488 C672.720764,398.875122 640.641663,445.930237 593.078552,483.050781 C556.450989,511.636688 514.604126,526.703979 468.181061,529.466492 C425.213257,532.023560 383.924805,525.554810 345.818756,505.152435 C287.459991,473.906647 246.629364,427.263885 227.273117,363.364319 C217.201157,330.114349 215.659836,296.005585 220.369095,261.513031 C228.525345,201.772980 257.514679,154.123489 303.157013,115.651329 C326.677490,95.825813 352.717438,80.863792 382.183563,72.037766 C400.887939,66.435219 419.946075,62.970379 439.579224,62.562778 C457.239380,62.196144 474.876709,62.048168 492.319336,65.021118 C525.399719,70.659401 556.113403,82.389252 583.642334,101.859604 C589.077698,105.703857 594.294861,109.856689 599.874390,114.106514 M436.933136,403.917633 C436.897552,378.756744 436.891022,353.595734 436.793671,328.435089 C436.779785,324.851746 437.838715,322.955200 441.820984,322.648315 C452.591583,321.818329 463.337067,320.654663 474.087708,319.575623 C498.798248,317.095459 523.216431,313.304474 546.662354,304.572540 C569.376892,296.112946 590.453003,285.289703 607.329102,267.227448 C629.954285,243.012054 639.070190,192.804977 607.584717,164.765747 C592.142639,151.013901 575.867065,140.066238 554.693237,138.191177 C530.833801,136.078278 509.799591,143.699692 490.151245,156.466232 C487.075531,158.464691 485.585358,160.857635 486.502014,164.345230 C487.376190,167.671112 490.476501,168.021194 493.223053,168.594727 C495.404480,169.050262 497.788239,168.155457 499.970978,169.264633 C499.612946,171.402237 496.328400,172.005707 497.756012,174.538940 C498.797760,176.387466 500.566010,176.590714 502.485291,176.682190 C521.783264,177.601974 540.811523,176.567703 558.746582,168.425522 C566.803894,164.767609 574.006042,167.041260 579.247314,172.826019 C590.598877,185.354538 596.324585,200.735413 593.455078,217.422745 C589.406616,240.966049 572.778198,255.519547 552.483948,265.211334 C532.950073,274.539978 511.869232,279.955750 490.622772,284.310242 C474.941437,287.524170 459.099243,289.349945 443.097839,289.777649 C437.614319,289.924225 436.796326,289.103088 436.845367,283.481171 C436.918640,275.080383 439.934692,267.549377 443.768799,260.264374 C444.685791,258.522003 446.246124,257.621246 447.993469,256.956970 C459.190216,252.700302 470.522552,248.734421 481.891815,245.068634 C500.740509,238.991287 516.978210,229.153000 530.933044,215.313004 C537.094177,209.202499 541.867615,201.282883 551.562439,199.925018 C551.717102,199.903366 551.860901,199.780579 552.002502,199.693130 C554.465149,198.172226 556.832092,196.579437 556.620361,193.168793 C556.394836,189.533966 554.663574,186.920425 551.399231,185.255661 C548.730408,183.894653 545.879028,184.166183 543.065735,184.166275 C464.247589,184.168991 385.429474,184.190506 306.611328,184.196457 C304.097900,184.196640 301.655090,184.434357 299.214844,185.137085 C295.692474,186.151413 293.062347,188.222015 292.617218,191.835632 C292.132935,195.767303 294.675018,198.366882 297.968506,200.086044 C299.272278,200.766571 300.782867,201.279236 302.236816,201.394485 C304.977783,201.611771 306.807434,202.986008 308.450867,205.044922 C316.015289,214.521622 325.263733,222.082962 335.411957,228.630249 C351.406647,238.949463 369.257721,244.769775 387.210266,250.481918 C404.557526,256.001465 413.772034,269.763763 413.335999,288.045532 C413.242889,291.949799 411.782623,293.316254 407.989502,293.338013 C386.437408,293.461578 365.699860,298.113983 345.649933,305.641632 C329.424164,311.733521 313.377533,318.375946 300.913422,331.200684 C292.332336,340.030060 285.552094,349.845367 285.445953,362.659149 C285.224518,389.402405 302.460052,406.758453 327.160370,414.260529 C353.021027,422.115021 379.850250,426.804596 407.099396,427.608002 C411.279907,427.731293 411.924805,429.613312 410.528900,433.062958 C409.410583,435.826569 407.505371,437.344452 404.442841,437.328796 C400.277252,437.307526 396.092926,437.595093 391.950562,437.290009 C387.301208,436.947571 383.449921,438.159210 380.232178,441.538635 C377.552460,444.352966 374.291107,445.737396 370.341095,445.247284 C361.528290,444.153839 354.926025,448.105774 349.251312,454.358337 C347.381836,456.418182 345.549805,458.454956 346.690369,461.388214 C347.853973,464.380859 350.720306,463.888550 353.162933,463.891632 C401.153442,463.952148 449.144012,463.994141 497.134552,463.996155 C499.706085,463.996277 503.001190,464.728149 504.105560,461.535950 C505.165924,458.471069 503.489349,455.611023 501.335236,453.453278 C499.719086,451.834381 497.705322,450.505493 495.664337,449.437897 C489.649200,446.291443 483.201477,444.782166 476.392670,445.190857 C473.247406,445.379639 470.937958,444.519928 469.559418,441.429871 C468.186584,438.352539 465.572113,437.242554 462.232666,437.296478 C456.569092,437.387909 450.902069,437.297699 445.236847,437.246216 C442.653656,437.222748 440.250763,436.875610 440.022308,433.464020 C440.674988,433.172729 441.109497,432.843964 441.571594,432.799133 C442.727966,432.686920 443.897278,432.662354 445.060638,432.674591 C461.071350,432.843109 476.274475,436.796326 491.302582,442.024597 C503.943878,446.422455 514.623474,453.192261 522.336975,464.303833 C523.280396,465.662933 524.466675,466.870392 525.641968,468.046661 C526.753052,469.158630 527.546814,471.076752 529.648865,470.312164 C532.047668,469.439575 531.984375,467.316040 531.882141,465.280975 C531.557312,458.811615 529.613159,452.879517 525.930115,447.528748 C520.412964,439.513458 512.958374,433.696472 504.556427,429.073914 C486.000519,418.864990 466.242615,412.204224 445.225555,409.316864 C442.007660,408.874817 438.400879,408.779358 436.933136,403.917633 M318.979645,143.493195 C329.312439,142.643753 337.805176,137.240555 346.435883,132.261230 C349.158875,130.690262 350.929169,128.051956 350.492126,124.782288 C350.038483,121.388657 347.254089,120.162643 344.309174,119.009583 C334.839325,115.301727 325.573700,115.876175 316.043976,119.054382 C303.468933,123.248215 303.388397,123.006729 306.948181,135.977631 C308.772064,142.623489 311.000031,144.149338 318.979645,143.493195 z" opacity="1"/><path fill="red" stroke="none" d="M320.501617,355.721893 C329.278015,344.550446 341.768097,340.609039 354.199829,336.815430 C371.592346,331.507996 389.600403,329.258575 407.556824,326.817993 C411.840210,326.235840 414.047974,327.248138 414.008209,332.185669 C413.841827,352.844147 413.974030,373.504852 413.918549,394.164551 C413.902496,400.127045 413.342377,400.264679 407.568481,399.759705 C391.493774,398.353851 375.466980,396.609589 359.673370,393.246429 C348.092987,390.780487 336.616272,387.853973 326.637360,381.030701 C316.982269,374.428833 314.932678,366.177612 320.501617,355.721893 z" opacity="1"/></svg>